<svg version="1.2" xmlns="http://www.w3.org/2000/svg" viewBox="0 0 126 127" width="128" height="129">
	<style>
		.s0 { fill: #192fb9 } 
	</style>
	<path class="s0" d="m149.19 73.28c10.3 0 18.66 8.36 18.66 18.71v18.71h-8.31v-18.71c0-5.76-4.69-10.45-10.35-10.45-5.76 0-10.45 4.69-10.45 10.45 0 5.65 4.69 10.4 10.45 10.4 2.25 0 4.39-0.77 6.07-2.04v9.27c-1.89 0.67-3.98 1.08-6.07 1.08-10.4 0-18.76-8.42-18.76-18.71 0-10.35 8.36-18.71 18.76-18.71z"/>
	<path class="s0" d="m180.24 98.77c0 1.99 1.58 3.62 3.57 3.62 1.98 0 3.62-1.63 3.62-3.62 0-1.28-0.72-2.3-1.69-3.06-2.8-1.99-12.38-4.13-12.38-12.03 0-5.71 4.74-10.4 10.45-10.4 5.76 0 10.45 4.69 10.45 10.4h-8.26c0-1.18-1.02-2.14-2.19-2.14-1.18 0-2.09 0.96-2.09 2.14 0 0.87 0.35 1.53 1.12 1.88 5.81 3.12 12.9 4.59 12.9 13.21 0 6.57-5.36 11.93-11.93 11.93-6.53 0-11.88-5.36-11.88-11.93z"/>
	<path class="s0" d="m206.09 98.77c0 1.99 1.58 3.62 3.57 3.62 1.98 0 3.62-1.63 3.62-3.62 0-1.28-0.72-2.3-1.69-3.06-2.8-1.99-12.38-4.13-12.38-12.03 0-5.71 4.74-10.4 10.45-10.4 5.76 0 10.45 4.69 10.45 10.4h-8.26c0-1.18-1.02-2.14-2.19-2.14-1.18 0-2.09 0.96-2.09 2.14 0 0.87 0.35 1.53 1.12 1.88 5.81 3.12 12.9 4.59 12.9 13.21 0 6.57-5.36 11.93-11.93 11.93-6.53 0-11.88-5.36-11.88-11.93z"/>
	<path class="s0" d="m234.03 110.7h-8.36v-37.42h8.36z"/>
	<path class="s0" d="m256.82 73.28c10.35 0 18.71 8.36 18.71 18.71 0 10.35-8.36 18.7-18.71 18.7-10.3 0-18.71-8.35-18.71-18.7 0-10.35 8.41-18.71 18.71-18.71zm0 29.11c5.71 0 10.4-4.7 10.4-10.4 0-5.71-4.69-10.4-10.4-10.4-5.71 0-10.35 4.69-10.35 10.4 0 5.7 4.64 10.4 10.35 10.4zm-5.66-10.4c0-3.11 2.6-5.71 5.66-5.71 3.11 0 5.71 2.6 5.71 5.71 0 3.06-2.6 5.66-5.71 5.66-2.35 0-4.28-1.48-5.2-3.47-0.31-0.66-0.46-1.43-0.46-2.19z"/>
	<path class="s0" d="m279.61 125.48v-33.49c0-10.35 8.41-18.71 18.76-18.71 10.3 0 18.71 8.36 18.71 18.71 0 10.29-8.41 18.71-18.71 18.71-2.09 0-4.18-0.36-6.07-0.97v-9.28c1.79 1.22 3.83 1.94 6.07 1.94 5.71 0 10.35-4.64 10.35-10.4 0-5.76-4.64-10.4-10.35-10.4-5.76 0-10.4 4.64-10.4 10.4v33.49z"/>
	<path class="s0" d="m337.01 62.47h6.48l-4.8 8.36h-6.47zm0.86 10.81c5.72 0 10.86 2.6 14.33 6.68 3.42 4.08 4.38 8.61 4.38 11.93 0 1.17-0.15 2.39-0.35 3.61h-23.71v-8.36h14.58c-1.78-3.31-5.2-5.6-9.23-5.6-5.91 0-10.39 4.79-10.39 10.45 0 5.5 4.43 10.4 10.39 10.4 2.45 0 4.59-0.87 6.38-2.25v9.43c-2.09 0.77-4.18 1.13-6.38 1.13-10.34 0-18.76-8.42-18.76-18.71 0-10.35 8.42-18.71 18.76-18.71z"/>
	<path class="s0" d="m377.39 73.28c5.71 0 10.86 2.6 14.32 6.68 3.42 4.07 4.39 8.61 4.39 11.93 0 1.17-0.15 2.39-0.36 3.61h-23.71v-8.36h14.59c-1.79-3.31-5.2-5.6-9.23-5.6-5.91 0-10.4 4.79-10.4 10.45 0 5.5 4.44 10.4 10.4 10.4 2.45 0 4.59-0.87 6.37-2.25v9.43c-2.09 0.77-4.18 1.13-6.37 1.13-10.35 0-18.76-8.42-18.76-18.71 0-10.35 8.41-18.71 18.76-18.71z"/>
	<path class="s0" d="m139.48 31.41v8.1c1.57-0.89 3.38-1.41 5.35-1.41 5.9 0 10.69 4.79 10.69 10.66v13.42h-5.31v-13.42c0-2.89-2.43-5.32-5.38-5.32-2.96 0-5.35 2.43-5.35 5.32v13.42h-5.38v-30.77z"/>
	<path class="s0" d="m170.19 38.1c6.66 0 12.04 5.38 12.04 12.04 0 6.66-5.38 12.04-12.04 12.04-6.62 0-12.04-5.38-12.04-12.04 0-6.66 5.42-12.04 12.04-12.04zm0 18.73c3.68 0 6.7-3.02 6.7-6.69 0-3.68-3.02-6.69-6.7-6.69-3.67 0-6.66 3.01-6.66 6.69 0 3.67 2.99 6.69 6.66 6.69zm-3.64-6.69c0-2 1.68-3.67 3.64-3.67 2 0 3.68 1.67 3.68 3.67 0 1.97-1.68 3.64-3.68 3.64-1.51 0-2.75-0.95-3.34-2.23-0.2-0.43-0.3-0.92-0.3-1.41z"/>
	<path class="s0" d="m193.99 38.1c3.68 0 6.99 1.67 9.22 4.29 2.2 2.63 2.82 5.55 2.82 7.68 0 0.76-0.1 1.54-0.23 2.33h-15.26v-5.38h9.39c-1.15-2.13-3.35-3.61-5.94-3.61-3.8 0-6.69 3.09-6.69 6.73 0 3.54 2.85 6.69 6.69 6.69 1.57 0 2.95-0.56 4.1-1.44v6.07c-1.35 0.49-2.69 0.72-4.1 0.72-6.66 0-12.07-5.41-12.07-12.04 0-6.66 5.41-12.04 12.07-12.04z"/>
	<path class="s0" d="m208.66 38.1h5.32v13.35c0 2.95 2.42 5.38 5.38 5.38 2.95 0 5.34-2.43 5.34-5.38v-13.35h5.38v13.35c0 5.94-4.78 10.73-10.73 10.73-5.9 0-10.69-4.79-10.69-10.73z"/>
	<path class="s0" d="m234.02 50.1c0-6.69 5.41-12 12.07-12v5.34c-3.67 0-6.69 2.99-6.69 6.66v12.08h-5.38z"/>
	<path class="s0" d="m107.32 73.07c-4.83 15.49-19.27 26.76-36.38 26.76-21.05 0-38.09-17.04-38.09-38.09 0-7.78 2.33-15.05 6.38-21.05-0.89-3.22-2.44-7.78-4.55-11.16-3.61-5.67-9.83-7.56-9.83-7.56 0 0 6.33-1.05 9.88-5.05 2.73-3.06 4.34-8.44 4.95-10.78-21.61 9.17-36.99 30.05-38.16 54.71 2.62-1.06 5.95-3.06 8.33-6.67 4.39-6.66 6.39-19.82 6.39-19.82 0 0 1 13.6 5.22 19.55 4.28 5.94 11.33 8.49 11.33 8.49 0 0-6.67 2.39-10.94 10.78-4.28 8.33-5.66 29.87-5.66 29.87 0 0-1.73-19.66-6.11-29.43-2.45-5.44-6-8.44-8.72-10v0.17c0 34.6 28.04 62.64 62.64 62.64 30.05 0 55.2-21.15 61.26-49.42z"/>
	<path class="s0" d="m64.11 1.15c-8.5 0-16.61 1.72-23.99 4.77 0.44 1.84 1.67 5.94 4 9.83 3.05 5.22 11.38 6.5 11.38 6.5 0 0-5.44 0.11-9.72 6.44-1.78 2.62-2.99 5.67-3.89 8.44 7-8.27 17.44-13.49 29.11-13.49 16.05 0 29.71 9.88 35.37 23.88l17-4.22c-8.56-24.55-31.88-42.15-59.26-42.15zm1.55 11.83c-1.72 2.16-2.55 7.22-2.55 7.22 0 0-1-5-2.66-7.45-1.67-2.44-4.28-3.38-4.28-3.38 0 0 2.44-0.67 4.22-2.28 1.77-1.61 2.72-5.66 2.72-5.66 0 0 1.11 3.27 2.44 5.33 1.34 1.99 4.61 3.22 4.61 3.22 0 0-2.83 0.83-4.5 3z"/>
</svg>