<svg viewBox="0 0 417.06 139.58" xmlns="http://www.w3.org/2000/svg"><path d="m159.19 79.277c10.301 0 18.66 8.3594 18.66 18.711v18.711h-8.3086v-18.711c0-5.7617-4.6914-10.449-10.352-10.449-5.7578 0-10.449 4.6875-10.449 10.449 0 5.6562 4.6914 10.398 10.449 10.398 2.2461 0 4.3867-0.76172 6.0664-2.0391v9.2773c-1.8867 0.66406-3.9766 1.0742-6.0664 1.0742-10.398 0-18.758-8.4141-18.758-18.711 0-10.352 8.3594-18.711 18.758-18.711" fill="#192fb9"/><path d="m190.24 104.77c0 1.9883 1.5781 3.6172 3.5664 3.6172 1.9883 0 3.6211-1.6289 3.6211-3.6172 0-1.2773-0.71484-2.2969-1.6836-3.0586-2.8047-1.9883-12.387-4.1289-12.387-12.031 0-5.7109 4.7422-10.402 10.449-10.402 5.7617 0 10.453 4.6914 10.453 10.402h-8.2617c0-1.1758-1.0195-2.1445-2.1914-2.1445s-2.0898 0.96875-2.0898 2.1445c0 0.86719 0.35547 1.5273 1.1211 1.8828 5.8125 3.1133 12.898 4.5898 12.898 13.207 0 6.5742-5.3516 11.926-11.93 11.926-6.5234 0-11.879-5.3516-11.879-11.926z" fill="#192fb9"/><path d="m216.09 104.77c0 1.9883 1.5781 3.6172 3.5664 3.6172s3.6211-1.6289 3.6211-3.6172c0-1.2773-0.71484-2.2969-1.6836-3.0586-2.8047-1.9883-12.387-4.1289-12.387-12.031 0-5.7109 4.7422-10.402 10.449-10.402 5.7617 0 10.453 4.6914 10.453 10.402h-8.2617c0-1.1758-1.0195-2.1445-2.1914-2.1445s-2.0898 0.96875-2.0898 2.1445c0 0.86719 0.35547 1.5273 1.1211 1.8828 5.8125 3.1133 12.898 4.5898 12.898 13.207 0 6.5742-5.3516 11.926-11.93 11.926-6.5234 0-11.879-5.3516-11.879-11.926z" fill="#192fb9"/><path d="m244.03 116.7h-8.3633v-37.418h8.3633z" fill="#192fb9"/><path d="m261.16 97.988c0-3.1094 2.6016-5.7109 5.6562-5.7109 3.1133 0 5.7109 2.6016 5.7109 5.7109 0 3.0586-2.5977 5.6602-5.7109 5.6602-2.3438 0-4.2812-1.4805-5.1992-3.4688-0.30469-0.66406-0.45703-1.4258-0.45703-2.1914m5.6562 10.398c5.7109 0 10.402-4.6914 10.402-10.398 0-5.7109-4.6914-10.398-10.402-10.398-5.707 0-10.348 4.6875-10.348 10.398 0 5.707 4.6406 10.398 10.348 10.398m0-29.109c10.352 0 18.711 8.3633 18.711 18.711 0 10.348-8.3594 18.707-18.711 18.707-10.297 0-18.707-8.3594-18.707-18.707 0-10.348 8.4102-18.711 18.707-18.711" fill="#192fb9"/><path d="m289.61 131.48v-33.492c0-10.352 8.4102-18.711 18.762-18.711 10.297 0 18.707 8.3594 18.707 18.711 0 10.297-8.4102 18.711-18.707 18.711-2.0938 0-4.1836-0.35938-6.0703-0.97266v-9.2773c1.7852 1.2227 3.8242 1.9375 6.0703 1.9375 5.707 0 10.344-4.6367 10.344-10.398s-4.6367-10.402-10.344-10.402c-5.7617 0-10.402 4.6406-10.402 10.402v33.492z" fill="#192fb9"/><path d="m347.01 68.473h6.4766l-4.793 8.3594h-6.4766zm0.86719 10.805c5.7109 0 10.859 2.6016 14.324 6.6797 3.418 4.0781 4.3828 8.6172 4.3828 11.93 0 1.1719-0.14844 2.3945-0.35156 3.6172h-23.707v-8.3594h14.582c-1.7852-3.3125-5.2031-5.6094-9.2305-5.6094-5.9141 0-10.398 4.793-10.398 10.453 0 5.5039 4.4336 10.398 10.398 10.398 2.4492 0 4.5859-0.86719 6.3711-2.2422v9.4297c-2.0898 0.76562-4.1758 1.125-6.3711 1.125-10.348 0-18.762-8.4141-18.762-18.711 0-10.348 8.4141-18.711 18.762-18.711" fill="#192fb9"/><path d="m387.39 79.277c5.7109 0 10.855 2.6016 14.324 6.6797 3.4141 4.0781 4.3828 8.6172 4.3828 11.93 0 1.1719-0.14844 2.3945-0.35547 3.6172h-23.707v-8.3594h14.582c-1.7852-3.3125-5.1992-5.6055-9.2266-5.6055-5.9141 0-10.398 4.7891-10.398 10.449 0 5.5039 4.4336 10.398 10.398 10.398 2.4453 0 4.5859-0.86719 6.3711-2.2422v9.4297c-2.0898 0.76562-4.1797 1.125-6.3711 1.125-10.352 0-18.762-8.4141-18.762-18.711 0-10.352 8.4102-18.711 18.762-18.711" fill="#192fb9"/><path d="m149.48 37.406v8.1016c1.5742-0.88672 3.3789-1.4102 5.3477-1.4102 5.9062 0 10.695 4.7891 10.695 10.66v13.418h-5.3125v-13.418c0-2.8828-2.4297-5.3125-5.3828-5.3125s-5.3477 2.4297-5.3477 5.3125v13.418h-5.3789v-30.77z" fill="#192fb9"/><path d="m176.55 56.137c0-2 1.6758-3.6719 3.6445-3.6719 2 0 3.6719 1.6719 3.6719 3.6719 0 1.9688-1.6719 3.6445-3.6719 3.6445-1.5117 0-2.7578-0.95312-3.3477-2.2344-0.19531-0.42578-0.29687-0.91797-0.29687-1.4102m3.6445 6.6914c3.6719 0 6.6914-3.0156 6.6914-6.6914 0-3.6719-3.0195-6.6914-6.6914-6.6914-3.6758 0-6.6602 3.0195-6.6602 6.6914 0 3.6758 2.9844 6.6914 6.6602 6.6914m0-18.73c6.6562 0 12.039 5.3789 12.039 12.039 0 6.6602-5.3828 12.043-12.039 12.043-6.6289 0-12.043-5.3828-12.043-12.043 0-6.6602 5.4141-12.039 12.043-12.039" fill="#192fb9"/><path d="m203.99 44.098c3.6758 0 6.9883 1.6719 9.2188 4.2969 2.1992 2.625 2.8203 5.5469 2.8203 7.6797 0 0.75391-0.097656 1.5391-0.23047 2.3281h-15.254v-5.3828h9.3828c-1.1484-2.1289-3.3477-3.6055-5.9375-3.6055-3.8047 0-6.6914 3.082-6.6914 6.7227 0 3.543 2.8516 6.6914 6.6914 6.6914 1.5742 0 2.9531-0.55469 4.1016-1.4414v6.0703c-1.3477 0.49219-2.6914 0.71875-4.1016 0.71875-6.6602 0-12.074-5.4102-12.074-12.039 0-6.6602 5.4141-12.039 12.074-12.039" fill="#192fb9"/><path d="m218.66 44.098h5.3164v13.352c0 2.9531 2.4258 5.3789 5.3789 5.3789 2.9531 0 5.3477-2.4258 5.3477-5.3789v-13.352h5.3789v13.352c0 5.9414-4.7852 10.727-10.727 10.727-5.9062 0-10.695-4.7852-10.695-10.727z" fill="#192fb9"/><path d="m244.02 56.105c0-6.6914 5.4102-12.008 12.07-12.008v5.3477c-3.6719 0-6.6914 2.9844-6.6914 6.6602v12.074h-5.3789z" fill="#192fb9"/><path d="m117.32 79.066c-4.832 15.492-19.27 26.766-36.375 26.766-21.051 0-38.098-17.047-38.098-38.094 0-7.7773 2.332-15.051 6.3867-21.051-0.89062-3.2188-2.4453-7.7734-4.5547-11.16-3.6094-5.668-9.8281-7.5547-9.8281-7.5547s6.3281-1.0547 9.8828-5.0547c2.7227-3.0547 4.332-8.4414 4.9453-10.773-21.605 9.1641-36.988 30.047-38.156 54.703 2.6133-1.0547 5.9453-3.0547 8.332-6.6641 4.3867-6.6641 6.3867-19.824 6.3867-19.824s1 13.605 5.2188 19.547c4.2773 5.9414 11.328 8.4961 11.328 8.4961s-6.6641 2.3867-10.938 10.773c-4.2773 8.332-5.6641 29.879-5.6641 29.879s-1.7227-19.66-6.1094-29.434c-2.4453-5.4414-6-8.4414-8.7188-9.9961v0.16797c0 34.598 28.043 62.641 62.641 62.641 30.047 0 55.203-21.156 61.258-49.426z" fill="#192fb9"/><path d="m75.664 18.977c-1.7227 2.1641-2.5547 7.2188-2.5547 7.2188s-1-5-2.6641-7.4414c-1.668-2.4453-4.2773-3.3867-4.2773-3.3867s2.4453-0.66797 4.2188-2.2773c1.7773-1.6094 2.7227-5.6641 2.7227-5.6641s1.1094 3.2734 2.4453 5.332c1.332 1.9961 4.6094 3.2188 4.6094 3.2188s-2.832 0.83203-4.5 3m-1.5547-11.828c-8.4961 0-16.605 1.7188-23.992 4.7734 0.44531 1.8359 1.668 5.9414 4 9.832 3.0547 5.2188 11.383 6.4961 11.383 6.4961s-5.4414 0.11328-9.7188 6.4414c-1.7773 2.6133-2.9961 5.6641-3.8867 8.4414 7-8.2734 17.438-13.492 29.102-13.492 16.051 0 29.711 9.8828 35.375 23.879l16.996-4.2227c-8.5547-24.543-31.879-42.148-59.258-42.148" fill="#192fb9"/></svg>
